# xmcd
#
# Track frame offsets: 
#        150
#        15433
#        26875
#        35308
#        52040
#        64983
#        81423
#        95350
#        106285
#        118770
#        133283
#        147420
#        158523
#        168343
#        183873
#
# Disc length: 2536 seconds
#
# Revision: 0
# Processed by: cddbd v1.4PL0 Copyright (c) Steve Scherf et al.
# Submitted via: ExactAudioCopy v0.90a11
#
DISCID=cb09e60f
DTITLE=Doug Sahm - Juke Box Music
DYEAR=1900
DGENRE=
TTITLE0=I Won't Cry
TTITLE1=Money Over Love
TTITLE2=Crazy Baby
TTITLE3=You're Mine Tonight
TTITLE4=It Hurts To Love Someone
TTITLE5=Hey Little Girl
TTITLE6=My Dearest Darling
TTITLE7=Buzz, Buzz, Buzz
TTITLE8=She Put The Hurt On Me
TTITLE9=What's Your Name
TTITLE10=I Don't Believe
TTITLE11=Golly Gee
TTITLE12=The Chicken And The Soup
TTITLE13=Talk To Me
TTITLE14=Goodnight My Love
EXTD=
EXTT0=
EXTT1=
EXTT2=
EXTT3=
EXTT4=
EXTT5=
EXTT6=
EXTT7=
EXTT8=
EXTT9=
EXTT10=
EXTT11=
EXTT12=
EXTT13=
EXTT14=
PLAYORDER=
